# xmcd CD database file
#
# Track frame offsets:
#	150
#	14821
#	35928
#	53196
#	78294
#	88334
#	111757
#	125793
#	146097
#	161267
#	172780
#	189012
#	203676
#	228956
#
# Disc length: 3229 seconds
#
# Revision: 0
# Processed by: cddbd v1.5.2PL0 Copyright (c) Steve Scherf et al.
# Submitted via: Feurio! 1.67 - http://www.feurio.com
#
DISCID=b90c9b0e
DTITLE=Markus Rill - Gunslinger's Tales
DYEAR=1997
DGENRE=Blues
TTITLE0=A Girl Called Jo
TTITLE1=Jenny
TTITLE2=Unknown
TTITLE3=Billy's Song
TTITLE4=The Plan
TTITLE5=In The Family
TTITLE6=A Soldier's Farewell
TTITLE7=Gunslinger's Blues
TTITLE8=Hope I'll Get To Heaven
TTITLE9=Can't Get Over You
TTITLE10=Wild Coyote (2009 Version)
TTITLE11=A Girl Called Jo (Live 1998)
TTITLE12=Billy's Song (Live 1998)
TTITLE13=Hope I'll Get To Heaven (Live 1998)
EXTD=
EXTT0=
EXTT1=
EXTT2=
EXTT3=
EXTT4=
EXTT5=
EXTT6=
EXTT7=
EXTT8=
EXTT9=
EXTT10=Bonus Track
EXTT11=Bonus Track
EXTT12=Bonus Track
EXTT13=Bonus Track
PLAYORDER=
